{
.appVersion = "3343";
.storedFileType = com.schriftgestaltung.glyphs;
.formatVersion = 3;
DisplayStrings = (
"HHOHHOOHOO
HHAHOAOO
HHBHOBOO
HHCHOCOO
HHDHODOO
HHEHOEOO
HHFHOFOO
HHGHOGOO
HHHHOHOO
HHIHOIOO
HHJHOJOO
HHKHOKOO
HHLHOLOO
HHMHOMOO
HHNHONOO
HHOHOOOO 
HHPHOPOO
HHQHOQOO
HHRHOROO
HHSHOSOO
HHTHOTOO
HHUHOUOO
HHVHOVOO
HHWHOWOO
HHXHOXOO
HHYHOYOO
HHZHOZOO
",
"


ABCDHand gloves
Brodine",
"Bedrals Cacomixls Coachloads Hellenise Crunches Aniseeds Bacchanalians Hexes Airspeed Cablevision Chelonia Caldwell Cummerbund Aoudads Colourless Cancroid Brownies Adrenals Aquilegia Accesses Blanched Bug Hulls Haram Hide Clavicular Hens Braid Congo Chloridising",

glyphs = (
{
glyphname = A;
lastChange = "2025-06-30 02:26:29 +0000";
layers = (
{
.lastUpdate = 772943189.101;
layerId = m01;
shapes = (
{
closed = 1;
nodes = (
(105,0,l),
(354,650,l),
(277,650,l),
(28,0,l)
);
},
{
closed = 1;
nodes = (
(354,650,l),
(277,650,l),
(535,0,l),
(612,0,l)
);
},
{
closed = 1;
nodes = (
(469,197,l),
(469,273,l),
(179,273,l),
(179,197,l)
);
}
);
width = 640;
}
);
unicode = 65;
},
{
glyphname = B;
lastChange = "2025-06-30 03:14:31 +0000";
layers = (
{
.lastUpdate = 772946071.7;
layerId = m01;
shapes = (
{
closed = 1;
nodes = (
(57,0,l),
(143,0,l),
(143,650,l),
(57,650,l)
);
},
{
closed = 1;
nodes = (
(409,311,l),
(409,387,l),
(71,387,l),
(71,311,l)
);
},
{
closed = 1;
nodes = (
(349,574,ls),
(436,574,o),
(464,526,o),
(464,484,cs),
(464,435,o),
(436,387,o),
(349,387,c),
(349,311,l),
(456,311,o),
(550,382,o),
(550,479,cs),
(550,569,o),
(484,650,o),
(349,650,cs),
(71,650,l),
(71,574,l)
);
},
{
closed = 1;
nodes = (
(409,0,ls),
(516,0,o),
(610,74,o),
(610,201,cs),
(610,308,o),
(516,387,o),
(409,387,c),
(409,311,l),
(468,311,o),
(524,255,o),
(524,196,cs),
(524,117,o),
(468,76,o),
(409,76,cs),
(71,76,l),
(71,0,l)
);
}
);
width = 641;
}
);
unicode = 66;
},
{
glyphname = C;
lastChange = "2025-06-30 03:03:31 +0000";
layers = (
{
.lastUpdate = 772945411.156;
layerId = m01;
shapes = (
{
closed = 1;
nodes = (
(29,98,o),
(160,-17,o),
(340,-17,cs),
(463,-17,o),
(562,42,o),
(611,140,c),
(556,186,l),
(513,103,o),
(463,49,o),
(340,49,cs),
(207,49,o),
(105,152,o),
(105,331,cs),
(105,478,o),
(207,600,o),
(340,600,cs),
(442,600,o),
(496,551,o),
(550,466,c),
(611,509,l),
(551,610,o),
(463,666,o),
(340,666,cs),
(160,666,o),
(29,532,o),
(29,331,cs)
);
}
);
width = 640;
}
);
unicode = 67;
},
{
glyphname = D;
lastChange = "2025-06-30 02:30:34 +0000";
layers = (
{
.lastUpdate = 772943434.723;
layerId = m01;
shapes = (
{
closed = 1;
nodes = (
(57,2,l),
(143,2,l),
(143,650,l),
(57,650,l)
);
},
{
closed = 1;
nodes = (
(320,574,ls),
(433,574,o),
(535,480,o),
(535,323,cs),
(535,160,o),
(433,76,o),
(320,76,cs),
(71,76,l),
(71,0,l),
(320,0,ls),
(480,0,o),
(611,106,o),
(611,323,cs),
(611,534,o),
(480,650,o),
(320,650,cs),
(71,650,l),
(71,574,l)
);
}
);
width = 640;
}
);
unicode = 68;
},
{
glyphname = E;
lastChange = "2025-06-30 02:31:31 +0000";
layers = (
{
.lastUpdate = 772943491.777;
layerId = m01;
shapes = (
{
closed = 1;
nodes = (
(57,2,l),
(143,2,l),
(143,650,l),
(57,650,l)
);
},
{
closed = 1;
nodes = (
(304,311,l),
(304,387,l),
(71,387,l),
(71,311,l)
);
},
{
closed = 1;
nodes = (
(451,574,l),
(451,650,l),
(71,650,l),
(71,574,l)
);
},
{
closed = 1;
nodes = (
(451,0,l),
(451,76,l),
(71,76,l),
(71,0,l)
);
}
);
width = 480;
}
);
unicode = 69;
},
{
glyphname = F;
lastChange = "2025-06-30 03:17:05 +0000";
layers = (
{
.lastUpdate = 772946225.318;
layerId = m01;
shapes = (
{
closed = 1;
nodes = (
(57,2,l),
(143,2,l),
(143,650,l),
(57,650,l)
);
},
{
closed = 1;
nodes = (
(314,246,l),
(314,322,l),
(71,322,l),
(71,246,l)
);
},
{
closed = 1;
nodes = (
(451,574,l),
(451,650,l),
(71,650,l),
(71,574,l)
);
}
);
width = 480;
}
);
unicode = 70;
},
{
glyphname = G;
lastChange = "2025-06-30 03:19:04 +0000";
layers = (
{
.lastUpdate = 772946344.127;
layerId = m01;
shapes = (
{
closed = 1;
nodes = (
(29,84,o),
(170,-16,o),
(330,-16,cs),
(518,-16,o),
(595,169,o),
(595,313,c),
(509,237,l),
(509,138,o),
(420,50,o),
(330,50,cs),
(217,50,o),
(105,138,o),
(105,317,cs),
(105,463,o),
(217,585,o),
(330,585,cs),
(422,585,o),
(502,538,o),
(536,455,c),
(595,494,l),
(547,602,o),
(471,650,o),
(330,651,cs),
(170,652,o),
(29,517,o),
(29,317,cs)
);
},
{
closed = 1;
nodes = (
(509,-2,l),
(595,-2,l),
(595,313,l),
(509,313,l)
);
},
{
closed = 1;
nodes = (
(595,237,l),
(595,313,l),
(407,313,l),
(407,237,l)
);
}
);
width = 640;
}
);
unicode = 71;
},
{
glyphname = H;
lastChange = "2025-06-30 02:22:53 +0000";
layers = (
{
.lastUpdate = 772942973.406;
layerId = m01;
shapes = (
{
closed = 1;
nodes = (
(57,2,l),
(143,2,l),
(143,650,l),
(57,650,l)
);
},
{
closed = 1;
nodes = (
(497,2,l),
(583,2,l),
(583,650,l),
(497,650,l)
);
},
{
closed = 1;
nodes = (
(519,298,l),
(519,374,l),
(71,374,l),
(71,298,l)
);
}
);
width = 640;
}
);
unicode = 72;
},
{
glyphname = I;
lastChange = "2025-06-30 03:12:39 +0000";
layers = (
{
.lastUpdate = 772945959.434;
layerId = m01;
shapes = (
{
closed = 1;
nodes = (
(117,2,l),
(203,2,l),
(203,650,l),
(117,650,l)
);
},
{
closed = 1;
nodes = (
(31,66,l),
(31,0,l),
(289,0,l),
(289,66,l)
);
},
{
closed = 0;
nodes = (
(289,650,l),
(31,650,l)
);
},
{
closed = 1;
nodes = (
(31,650,l),
(31,584,l),
(289,584,l),
(289,650,l)
);
}
);
width = 320;
}
);
unicode = 73;
},
{
glyphname = J;
lastChange = "2025-06-30 02:35:44 +0000";
layers = (
{
.lastUpdate = 772943744.144;
layerId = m01;
shapes = (
{
closed = 0;
nodes = (
(401,209,l),
(401,653,l)
);
},
{
closed = 1;
nodes = (
(401,653,l),
(315,653,l),
(315,209,l),
(401,209,l)
);
},
{
closed = 1;
nodes = (
(34,31,l),
(74,-1,o),
(117,-18,o),
(180,-18,cs),
(310,-18,o),
(401,46,o),
(401,209,c),
(315,209,l),
(315,100,o),
(263,48,o),
(180,48,cs),
(138,48,o),
(104,65,o),
(79,86,c)
);
},
{
closed = 1;
nodes = (
(51,653,l),
(51,587,l),
(356,587,l),
(356,653,l)
);
}
);
width = 480;
}
);
unicode = 74;
},
{
glyphname = K;
lastChange = "2025-07-07 15:56:18 +0000";
layers = (
{
.lastUpdate = 773596578.479;
layerId = m01;
shapes = (
{
closed = 1;
nodes = (
(51,2,l),
(137,2,l),
(137,650,l),
(51,650,l)
);
},
{
closed = 1;
nodes = (
(311,430,l),
(215,430,l),
(496,0,l),
(592,0,l)
);
},
{
closed = 1;
nodes = (
(65,236,l),
(129,236,l),
(511,650,l),
(413,650,l),
(65,273,l)
);
}
);
width = 600;
}
);
unicode = 75;
},
{
glyphname = L;
lastChange = "2025-06-30 02:36:44 +0000";
layers = (
{
.lastUpdate = 772943804.446;
layerId = m01;
shapes = (
{
closed = 1;
nodes = (
(51,2,l),
(137,2,l),
(137,650,l),
(51,650,l)
);
},
{
closed = 1;
nodes = (
(51,76,l),
(51,0,l),
(460,0,l),
(460,76,l)
);
}
);
width = 480;
}
);
unicode = 76;
},
{
glyphname = M;
lastChange = "2025-06-30 02:37:13 +0000";
layers = (
{
.lastUpdate = 772943833.833;
layerId = m01;
shapes = (
{
closed = 1;
nodes = (
(57,2,l),
(143,2,l),
(143,650,l),
(57,650,l)
);
},
{
closed = 1;
nodes = (
(657,2,l),
(743,2,l),
(743,650,l),
(657,650,l)
);
},
{
closed = 1;
nodes = (
(357,29,l),
(443,29,l),
(143,650,l),
(57,650,l)
);
},
{
closed = 1;
nodes = (
(657,650,l),
(357,29,l),
(443,29,l),
(743,650,l)
);
}
);
width = 800;
}
);
unicode = 77;
},
{
glyphname = N;
lastChange = "2025-06-30 02:38:09 +0000";
layers = (
{
.lastUpdate = 772943889.358;
background = {
shapes = (
{
closed = 1;
nodes = (
(497,2,l),
(583,22,l),
(143,650,l),
(57,630,l)
);
}
);
};
layerId = m01;
shapes = (
{
closed = 1;
nodes = (
(57,2,l),
(143,2,l),
(143,650,l),
(57,650,l)
);
},
{
closed = 1;
nodes = (
(497,2,l),
(583,2,l),
(583,650,l),
(497,650,l)
);
},
{
closed = 1;
nodes = (
(497,2,l),
(497,145,l),
(143,650,l),
(143,507,l)
);
}
);
width = 640;
}
);
unicode = 78;
},
{
glyphname = O;
lastChange = "2025-06-29 21:58:45 +0000";
layers = (
{
.lastUpdate = 772927125.84;
layerId = m01;
shapes = (
{
closed = 1;
nodes = (
(439,594,o),
(537,487,o),
(537,324,cs),
(537,141,o),
(439,54,o),
(320,54,cs),
(201,54,o),
(103,141,o),
(103,324,cs),
(103,487,o),
(201,594,o),
(320,594,cs)
);
},
{
closed = 1;
nodes = (
(480,-18,o),
(611,96,o),
(611,324,cs),
(611,532,o),
(480,666,o),
(320,666,cs),
(160,666,o),
(29,532,o),
(29,324,cs),
(29,96,o),
(160,-18,o),
(320,-18,cs)
);
}
);
width = 640;
}
);
unicode = 79;
},
{
glyphname = P;
lastChange = "2025-06-30 02:39:47 +0000";
layers = (
{
.lastUpdate = 772943987.652;
layerId = m01;
shapes = (
{
closed = 1;
nodes = (
(143,0,l),
(143,650,l),
(57,650,l),
(57,0,l)
);
},
{
closed = 1;
nodes = (
(71,230,l),
(250,230,ls),
(357,230,o),
(451,314,o),
(451,441,cs),
(451,568,o),
(357,650,o),
(250,650,cs),
(71,650,l),
(71,584,l),
(250,584,ls),
(309,584,o),
(375,520,o),
(375,441,cs),
(375,362,o),
(309,296,o),
(250,296,cs),
(71,296,l)
);
}
);
width = 480;
}
);
unicode = 80;
},
{
glyphname = Q;
lastChange = "2025-06-30 02:40:32 +0000";
layers = (
{
.lastUpdate = 772944032.494;
background = {
shapes = (
{
closed = 1;
nodes = (
(434,227,l),
(359,184,l),
(496,-54,l),
(570,-11,l)
);
}
);
};
layerId = m01;
shapes = (
{
closed = 1;
nodes = (
(438,202,l),
(371,164,l),
(496,-54,l),
(562,-16,l)
);
},
{
closed = 1;
nodes = (
(439,594,o),
(537,487,o),
(537,324,cs),
(537,141,o),
(439,54,o),
(320,54,cs),
(201,54,o),
(103,141,o),
(103,324,cs),
(103,487,o),
(201,594,o),
(320,594,cs)
);
},
{
closed = 1;
nodes = (
(480,-18,o),
(611,96,o),
(611,324,cs),
(611,532,o),
(480,666,o),
(320,666,cs),
(160,666,o),
(29,532,o),
(29,324,cs),
(29,96,o),
(160,-18,o),
(320,-18,cs)
);
}
);
width = 640;
}
);
unicode = 81;
},
{
glyphname = R;
lastChange = "2025-06-30 02:53:17 +0000";
layers = (
{
.lastUpdate = 772944797.892;
layerId = m01;
shapes = (
{
closed = 1;
nodes = (
(143,0,l),
(143,650,l),
(57,650,l),
(57,0,l)
);
},
{
closed = 1;
nodes = (
(81,268,l),
(404,268,ls),
(511,268,o),
(605,332,o),
(605,459,cs),
(605,566,o),
(511,650,o),
(404,650,cs),
(81,650,l),
(81,574,l),
(404,574,ls),
(463,574,o),
(529,518,o),
(529,459,cs),
(529,380,o),
(463,344,o),
(404,344,cs),
(81,344,l)
);
},
{
closed = 1;
nodes = (
(310,298,l),
(476,0,l),
(561,0,l),
(395,298,l)
);
}
);
width = 640;
}
);
unicode = 82;
},
{
glyphname = S;
lastChange = "2025-06-30 02:43:25 +0000";
layers = (
{
.lastUpdate = 772944206.634;
layerId = m01;
shapes = (
{
closed = 1;
nodes = (
(166,665,o),
(74,620,o),
(74,493,cs),
(74,389,o),
(179,327,o),
(221,309,cs),
(230,306,o),
(240,303,o),
(249,300,cs),
(300,283,o),
(373,258,o),
(373,173,cs),
(373,107,o),
(332,50,o),
(245,50,cs),
(181,50,o),
(149,78,o),
(123,104,cs),
(120,107,o),
(116,110,o),
(114,112,c),
(64,51,l),
(121,4,o),
(172,-14,o),
(259,-14,cs),
(348,-14,o),
(466,40,o),
(466,173,cs),
(466,351,o),
(279,334,o),
(190,433,cs),
(176,449,o),
(167,469,o),
(167,493,cs),
(167,531,o),
(188,582,o),
(248,582,cs),
(291,582,o),
(337,562,o),
(376,545,c),
(416,617,l),
(379,644,o),
(326,665,o),
(248,665,cs)
);
}
);
width = 480;
}
);
unicode = 83;
},
{
glyphname = T;
lastChange = "2025-06-30 02:44:29 +0000";
layers = (
{
.lastUpdate = 772944269.211;
layerId = m01;
shapes = (
{
closed = 1;
nodes = (
(197,2,l),
(283,2,l),
(283,650,l),
(197,650,l)
);
},
{
closed = 0;
nodes = (
(459,650,l),
(21,650,l)
);
},
{
closed = 1;
nodes = (
(21,650,l),
(21,584,l),
(459,584,l),
(459,650,l)
);
}
);
width = 480;
}
);
unicode = 84;
},
{
glyphname = U;
lastChange = "2025-06-30 02:44:46 +0000";
layers = (
{
.lastUpdate = 772944286.97;
layerId = m01;
shapes = (
{
closed = 1;
nodes = (
(495,249,l),
(495,130,o),
(423,58,o),
(320,58,cs),
(197,58,o),
(145,130,o),
(145,249,c),
(59,249,l),
(59,76,o),
(150,-18,o),
(320,-18,cs),
(490,-18,o),
(581,76,o),
(581,249,c)
);
},
{
closed = 0;
nodes = (
(145,249,l),
(145,650,l)
);
},
{
closed = 1;
nodes = (
(145,650,l),
(59,650,l),
(59,249,l),
(145,249,l)
);
},
{
closed = 0;
nodes = (
(581,249,l),
(581,650,l)
);
},
{
closed = 1;
nodes = (
(581,650,l),
(495,650,l),
(495,249,l),
(581,249,l)
);
}
);
width = 640;
}
);
unicode = 85;
},
{
glyphname = V;
lastChange = "2025-06-30 02:45:47 +0000";
layers = (
{
.lastUpdate = 772944347.485;
layerId = m01;
shapes = (
{
closed = 1;
nodes = (
(277,0,l),
(356,0,l),
(106,650,l),
(27,650,l)
);
},
{
closed = 1;
nodes = (
(534,650,l),
(284,0,l),
(363,0,l),
(613,650,l)
);
}
);
width = 640;
}
);
unicode = 86;
},
{
glyphname = W;
lastChange = "2025-06-30 02:47:52 +0000";
layers = (
{
.lastUpdate = 772944472.41;
layerId = m01;
shapes = (
{
closed = 1;
nodes = (
(183,0,l),
(262,0,l),
(107,650,l),
(28,650,l)
);
},
{
closed = 1;
nodes = (
(355,650,l),
(190,0,l),
(269,0,l),
(434,650,l)
);
},
{
closed = 1;
nodes = (
(520,0,l),
(599,0,l),
(434,650,l),
(355,650,l)
);
},
{
closed = 1;
nodes = (
(692,650,l),
(527,0,l),
(606,0,l),
(771,650,l)
);
}
);
width = 800;
}
);
unicode = 87;
},
{
glyphname = X;
lastChange = "2025-06-30 02:49:53 +0000";
layers = (
{
.lastUpdate = 772944593.041;
layerId = m01;
shapes = (
{
closed = 1;
nodes = (
(140,650,l),
(57,650,l),
(364,1,l),
(447,1,l)
);
},
{
closed = 1;
nodes = (
(265,307,l),
(427,650,l),
(344,650,l),
(224,396,l)
);
},
{
closed = 1;
nodes = (
(220,396,l),
(33,1,l),
(116,1,l),
(261,307,l)
);
}
);
width = 480;
}
);
unicode = 88;
},
{
glyphname = Y;
lastChange = "2025-06-30 02:51:54 +0000";
layers = (
{
.lastUpdate = 772944714.934;
layerId = m01;
shapes = (
{
closed = 1;
nodes = (
(197,0,l),
(283,0,l),
(283,350,l),
(197,350,l)
);
},
{
closed = 1;
nodes = (
(197,303,l),
(283,303,l),
(107,653,l),
(21,653,l)
);
},
{
closed = 1;
nodes = (
(373,653,l),
(197,303,l),
(283,303,l),
(459,653,l)
);
}
);
width = 480;
}
);
unicode = 89;
},
{
glyphname = Z;
lastChange = "2025-06-30 02:53:51 +0000";
layers = (
{
.lastUpdate = 772944831.46;
layerId = m01;
shapes = (
{
closed = 1;
nodes = (
(31,76,l),
(119,76,l),
(447,574,l),
(359,574,l)
);
},
{
closed = 1;
nodes = (
(31,76,l),
(31,0,l),
(319,0,l),
(449,76,l)
);
},
{
closed = 1;
nodes = (
(31,76,l),
(31,0,l),
(449,0,l),
(449,76,l)
);
},
{
closed = 1;
nodes = (
(31,650,l),
(31,574,l),
(449,574,l),
(449,650,l)
);
}
);
width = 480;
}
);
unicode = 90;
},
{
glyphname = a;
lastChange = "2025-06-30 01:40:42 +0000";
layers = (
{
.lastUpdate = 772940442.773;
backgroundImage = {
imagePath = "/Users/aliqadeer/Library/CloudStorage/Dropbox/Type West/T-03/images/slice_18.jpg";
locked = 1;
pos = (88,-100);
scale = (1.71,1.71);
};
layerId = m01;
shapes = (
{
closed = 1;
nodes = (
(166,256,ls),
(72,256,o),
(29,195,o),
(29,122,cs),
(29,62,o),
(81,-16,o),
(191,-17,cs),
(233,-18,o),
(308,11,o),
(325,52,c),
(316,149,l),
(316,71,o),
(238,47,o),
(199,47,cs),
(144,47,o),
(105,69,o),
(105,124,cs),
(105,175,o),
(134,190,o),
(188,190,c),
(316,190,l),
(316,256,l)
);
},
{
closed = 1;
nodes = (
(128,335,l),
(159,369,o),
(187,379,o),
(221,379,cs),
(250,379,o),
(315,363,o),
(316,295,cs),
(315,56,l),
(325,52,l),
(335,0,l),
(401,0,l),
(402,295,ls),
(401,411,o),
(298,445,o),
(221,445,cs),
(173,445,o),
(111,414,o),
(82,379,c)
);
},
{
closed = 1;
nodes = (
(392,66,l),
(392,0,l),
(458,0,l),
(458,66,l)
);
}
);
width = 480;
}
);
unicode = 97;
},
{
glyphname = b;
lastChange = "2025-06-30 01:47:52 +0000";
layers = (
{
.lastUpdate = 773597383.511;
background = {
shapes = (
{
closed = 1;
nodes = (
(134,315,o),
(191,389,o),
(250,389,c),
(339,389,o),
(385,315,o),
(385,216,cs),
(385,117,o),
(327,41,o),
(248,41,cs),
(179,41,o),
(135,117,o),
(135,216,cs),
(135,216,o),
(59,216,o),
(59,216,cs),
(59,125,o),
(133,-13,o),
(250,-13,cs),
(347,-13,o),
(451,69,o),
(451,216,cs),
(451,365,o),
(347,445,o),
(260,445,cs),
(150,445,o),
(100,363,o),
(100,216,c),
(134,216,l)
);
}
);
};
layerId = m01;
shapes = (
{
closed = 1;
nodes = (
(49,700,l),
(49,0,l),
(115,0,l),
(125,52,l),
(135,56,l),
(135,700,l)
);
},
{
closed = 1;
nodes = (
(135,216,l),
(135,325,o),
(171,379,o),
(250,379,cs),
(309,379,o),
(375,325,o),
(375,216,cs),
(375,107,o),
(309,53,o),
(250,53,cs),
(171,53,o),
(135,107,o),
(135,216,c),
(96,216,l),
(96,59,o),
(151,-13,o),
(250,-13,cs),
(357,-13,o),
(451,59,o),
(451,216,cs),
(451,373,o),
(357,445,o),
(260,445,cs),
(171,445,o),
(99,356,o),
(99,216,c)
);
}
);
width = 480;
}
);
unicode = 98;
changeCount = 7;
},
{
glyphname = c;
lastChange = "2025-06-30 01:49:09 +0000";
layers = (
{
.lastUpdate = 772945359.659;
layerId = m01;
shapes = (
{
closed = 1;
nodes = (
(105,315,o),
(181,379,o),
(250,379,cs),
(307,379,o),
(347,361,o),
(366,321,c),
(430,356,l),
(390,414,o),
(326,445,o),
(250,445,cs),
(133,445,o),
(29,363,o),
(29,216,cs),
(29,69,o),
(133,-13,o),
(250,-13,cs),
(326,-13,o),
(390,18,o),
(430,76,c),
(366,116,l),
(347,82,o),
(313,53,o),
(250,53,cs),
(181,53,o),
(105,117,o),
(105,216,cs)
);
}
);
width = 480;
}
);
unicode = 99;
},
{
glyphname = d;
lastChange = "2025-07-07 16:07:31 +0000";
layers = (
{
.lastUpdate = 773597396.177;
layerId = m01;
shapes = (
{
closed = 1;
nodes = (
(365,56,l),
(375,52,l),
(385,0,l),
(451,0,l),
(451,700,l),
(365,700,l)
);
},
{
closed = 1;
nodes = (
(401,356,o),
(329,445,o),
(240,445,cs),
(143,445,o),
(49,373,o),
(49,216,cs),
(49,59,o),
(143,-13,o),
(250,-13,cs),
(349,-13,o),
(404,59,o),
(404,216,c),
(365,216,l),
(365,107,o),
(329,53,o),
(250,53,cs),
(191,53,o),
(125,107,o),
(125,216,cs),
(125,325,o),
(191,379,o),
(250,379,cs),
(329,379,o),
(365,325,o),
(365,216,c),
(401,216,l)
);
}
);
width = 480;
}
);
unicode = 100;
changeCount = 12;
},
{
glyphname = e;
lastChange = "2025-06-30 01:57:27 +0000";
layers = (
{
.lastUpdate = 772941447.676;
background = {
shapes = (
{
closed = 1;
nodes = (
(203,176,l),
(263,176,l),
(263,252,l),
(203,252,l)
);
}
);
};
layerId = m01;
shapes = (
{
closed = 1;
nodes = (
(66,176,l),
(400,176,l),
(400,252,l),
(66,252,l)
);
},
{
closed = 1;
nodes = (
(351,113,l),
(330,81,o),
(309,53,o),
(240,53,cs),
(171,53,o),
(105,117,o),
(105,216,cs),
(105,315,o),
(171,379,o),
(240,379,cs),
(309,379,o),
(375,315,o),
(375,216,cs),
(375,202,o),
(374,188,o),
(371,176,c),
(448,176,l),
(450,189,o),
(451,202,o),
(451,216,cs),
(451,363,o),
(347,445,o),
(240,445,cs),
(133,445,o),
(29,365,o),
(29,216,cs),
(29,69,o),
(133,-13,o),
(240,-13,cs),
(347,-13,o),
(386,41,o),
(410,76,c)
);
}
);
width = 480;
}
);
unicode = 101;
},
{
glyphname = f;
lastChange = "2025-06-30 01:58:39 +0000";
layers = (
{
.lastUpdate = 772941519.242;
layerId = m01;
shapes = (
{
closed = 1;
nodes = (
(117,2,l),
(203,2,l),
(203,530,l),
(117,530,l)
);
},
{
closed = 1;
nodes = (
(21,430,l),
(21,354,l),
(299,354,l),
(299,430,l)
);
},
{
closed = 1;
nodes = (
(355,657,l),
(322,685,o),
(282,701,o),
(238,701,cs),
(143,701,o),
(117,617,o),
(117,530,c),
(203,530,l),
(203,569,o),
(206,615,o),
(246,615,cs),
(266,615,o),
(285,609,o),
(297,596,c)
);
}
);
width = 320;
}
);
unicode = 102;
},
{
glyphname = g;
lastChange = "2025-06-30 02:00:16 +0000";
layers = (
{
.lastUpdate = 772941616.521;
backgroundImage = {
imagePath = "/Users/aliqadeer/Library/CloudStorage/Dropbox/Type West/T-03/images/slice_12.jpg";
pos = (0,-453);
scale = (1.71,1.71);
};
layerId = m01;
shapes = (
{
closed = 1;
nodes = (
(345,-2,l),
(431,-2,l),
(431,351,l),
(345,351,l)
);
},
{
closed = 1;
nodes = (
(345,-81,o),
(299,-137,o),
(230,-137,c),
(189,-137,o),
(162,-111,o),
(140,-81,c),
(63,-123,l),
(101,-180,o),
(156,-213,o),
(230,-213,cs),
(337,-213,o),
(431,-129,o),
(431,-2,c),
(345,-2,l)
);
},
{
closed = 1;
nodes = (
(390,216,l),
(390,363,o),
(336,446,o),
(220,446,cs),
(133,446,o),
(29,375,o),
(29,216,cs),
(29,49,o),
(133,-13,o),
(230,-13,cs),
(347,-13,o),
(421,125,o),
(421,216,cs),
(421,216,o),
(345,216,o),
(345,216,cs),
(345,117,o),
(301,53,o),
(232,53,cs),
(173,53,o),
(105,97,o),
(105,216,cs),
(105,325,o),
(161,379,o),
(230,379,cs),
(289,379,o),
(346,315,o),
(346,216,c)
);
},
{
closed = 1;
nodes = (
(431,0,l),
(431,430,l),
(365,430,l),
(355,378,l),
(345,374,l),
(345,0,l)
);
}
);
width = 480;
}
);
unicode = 103;
},
{
glyphname = h;
lastChange = "2025-06-30 02:01:21 +0000";
layers = (
{
.lastUpdate = 772941681.405;
layerId = m01;
shapes = (
{
closed = 1;
nodes = (
(345,0,l),
(431,0,l),
(431,296,ls),
(430,412,o),
(337,446,o),
(260,446,cs),
(133,446,o),
(103,342,o),
(102,186,c),
(129,186,l),
(130,304,o),
(141,380,o),
(250,380,cs),
(289,380,o),
(344,364,o),
(345,296,cs)
);
},
{
closed = 1;
nodes = (
(129,700,l),
(43,700,l),
(43,0,l),
(129,0,l)
);
}
);
width = 480;
}
);
unicode = 104;
},
{
glyphname = i;
lastChange = "2025-07-07 15:52:27 +0000";
layers = (
{
.lastUpdate = 773596347.458;
layerId = m01;
shapes = (
{
closed = 1;
nodes = (
(205,504,o),
(229,528,o),
(229,564,cs),
(229,599,o),
(205,623,o),
(170,623,cs),
(134,623,o),
(110,599,o),
(110,564,cs),
(110,528,o),
(134,504,o),
(170,504,cs)
);
},
{
closed = 1;
nodes = (
(51,430,l),
(51,354,l),
(127,354,l),
(127,76,l),
(51,76,l),
(51,0,l),
(269,0,l),
(269,76,l),
(213,76,l),
(213,430,l)
);
}
);
width = 319;
}
);
unicode = 105;
},
{
glyphname = j;
lastChange = "2025-06-30 03:07:37 +0000";
layers = (
{
.lastUpdate = 772945657.923;
layerId = m01;
shapes = (
{
closed = 1;
nodes = (
(-35,-167,l),
(-2,-200,o),
(38,-216,o),
(82,-216,cs),
(177,-216,o),
(203,-148,o),
(203,-45,cs),
(203,430,l),
(117,430,l),
(117,-45,ls),
(117,-94,o),
(107,-130,o),
(71,-130,cs),
(51,-130,o),
(31,-124,o),
(23,-111,c)
);
},
{
closed = 1;
nodes = (
(195,504,o),
(219,528,o),
(219,564,cs),
(219,599,o),
(195,623,o),
(160,623,cs),
(124,623,o),
(100,599,o),
(100,564,cs),
(100,528,o),
(124,504,o),
(160,504,cs)
);
},
{
closed = 1;
nodes = (
(51,430,l),
(51,354,l),
(197,354,l),
(197,430,l)
);
}
);
width = 320;
}
);
unicode = 106;
},
{
glyphname = k;
lastChange = "2025-06-30 02:55:35 +0000";
layers = (
{
.lastUpdate = 772945238.119;
layerId = m01;
shapes = (
{
closed = 1;
nodes = (
(51,0,l),
(137,0,l),
(137,700,l),
(51,700,l)
);
},
{
closed = 1;
nodes = (
(295,297,l),
(208,297,l),
(369,0,l),
(456,0,l)
);
},
{
closed = 1;
nodes = (
(55,138,l),
(127,138,l),
(448,430,l),
(342,430,l),
(55,175,l)
);
}
);
width = 480;
}
);
unicode = 107;
},
{
glyphname = l;
lastChange = "2025-07-07 16:04:22 +0000";
layers = (
{
.lastUpdate = 773597067.24;
layerId = m01;
shapes = (
{
closed = 1;
nodes = (
(51,700,l),
(51,624,l),
(127,624,l),
(127,76,l),
(51,76,l),
(51,0,l),
(269,0,l),
(269,76,l),
(213,76,l),
(213,700,l)
);
}
);
width = 320;
}
);
unicode = 108;
changeCount = 1;
},
{
glyphname = m;
lastChange = "2025-06-30 02:09:46 +0000";
layers = (
{
.lastUpdate = 772942186.529;
layerId = m01;
shapes = (
{
closed = 1;
nodes = (
(365,0,l)
);
},
{
closed = 1;
nodes = (
(757,296,l),
(756,412,o),
(653,446,o),
(566,446,cs),
(445,446,o),
(402,342,o),
(401,186,c),
(439,255,l),
(440,304,o),
(445,380,o),
(556,380,cs),
(595,380,o),
(670,364,o),
(671,296,c)
);
},
{
closed = 1;
nodes = (
(671,0,l),
(757,0,l),
(757,296,l),
(671,296,l)
);
},
{
closed = 1;
nodes = (
(353,0,l),
(439,0,l),
(439,296,ls),
(438,412,o),
(337,446,o),
(260,446,cs),
(133,446,o),
(72,342,o),
(71,186,c),
(129,186,l),
(130,304,o),
(141,380,o),
(250,380,cs),
(289,380,o),
(352,364,o),
(353,296,cs)
);
},
{
closed = 1;
nodes = (
(129,374,l),
(119,378,l),
(109,430,l),
(43,430,l),
(43,0,l),
(129,0,l)
);
}
);
width = 800;
}
);
unicode = 109;
},
{
glyphname = n;
lastChange = "2025-06-30 01:37:23 +0000";
layers = (
{
.lastUpdate = 772942501.752;
backgroundImage = {
imagePath = "/Users/aliqadeer/Library/CloudStorage/Dropbox/Type West/T-03/images/slice_07.jpg";
locked = 1;
pos = (0,-153);
scale = (1.71,1.71);
};
layerId = m01;
shapes = (
{
closed = 1;
nodes = (
(345,0,l),
(431,0,l),
(431,296,ls),
(430,412,o),
(337,446,o),
(260,446,cs),
(133,446,o),
(82,342,o),
(81,186,c),
(129,186,l),
(130,304,o),
(141,380,o),
(250,380,cs),
(289,380,o),
(344,364,o),
(345,296,cs)
);
},
{
closed = 1;
nodes = (
(129,374,l),
(119,378,l),
(109,430,l),
(43,430,l),
(43,0,l),
(129,0,l)
);
}
);
width = 480;
}
);
unicode = 110;
},
{
glyphname = o;
lastChange = "2025-06-30 01:37:53 +0000";
layers = (
{
.lastUpdate = 772940273.842;
backgroundImage = {
imagePath = "/Users/aliqadeer/Library/CloudStorage/Dropbox/Type West/T-03/images/slice_15.jpg";
pos = (-4,-97);
scale = (1.7067,1.7067);
};
layerId = m01;
shapes = (
{
closed = 1;
nodes = (
(347,-13,o),
(451,59,o),
(451,216,cs),
(451,373,o),
(347,445,o),
(240,445,cs),
(133,445,o),
(29,375,o),
(29,216,cs),
(29,59,o),
(133,-13,o),
(240,-13,cs)
);
},
{
closed = 1;
nodes = (
(171,53,o),
(105,107,o),
(105,216,cs),
(105,325,o),
(171,379,o),
(240,379,cs),
(309,379,o),
(375,325,o),
(375,216,cs),
(375,107,o),
(309,53,o),
(240,53,cs)
);
}
);
width = 480;
}
);
unicode = 111;
},
{
glyphname = p;
lastChange = "2025-06-30 03:07:48 +0000";
layers = (
{
.lastUpdate = 772945668.995;
layerId = m01;
shapes = (
{
closed = 1;
nodes = (
(135,374,l),
(125,378,l),
(115,430,l),
(49,430,l),
(49,-200,l),
(135,-200,l)
);
},
{
closed = 1;
nodes = (
(99,77,o),
(171,-12,o),
(260,-12,cs),
(357,-12,o),
(451,60,o),
(451,217,cs),
(451,374,o),
(357,446,o),
(250,446,cs),
(151,446,o),
(96,374,o),
(96,217,c),
(135,217,l),
(135,326,o),
(171,380,o),
(250,380,cs),
(309,380,o),
(375,326,o),
(375,217,cs),
(375,108,o),
(309,54,o),
(250,54,cs),
(171,54,o),
(135,108,o),
(135,217,c),
(99,217,l)
);
}
);
width = 480;
}
);
unicode = 112;
},
{
glyphname = q;
lastChange = "2025-06-30 03:07:56 +0000";
layers = (
{
.lastUpdate = 772945676.406;
layerId = m01;
shapes = (
{
closed = 1;
nodes = (
(431,-200,l),
(431,430,l),
(365,430,l),
(355,378,l),
(345,374,l),
(345,-200,l)
);
},
{
closed = 1;
nodes = (
(345,217,l),
(345,108,o),
(309,54,o),
(230,54,cs),
(171,54,o),
(105,108,o),
(105,217,cs),
(105,326,o),
(171,380,o),
(230,380,cs),
(309,380,o),
(345,326,o),
(345,217,c),
(384,217,l),
(384,374,o),
(329,446,o),
(230,446,cs),
(123,446,o),
(29,374,o),
(29,217,cs),
(29,60,o),
(123,-12,o),
(220,-12,cs),
(309,-12,o),
(381,77,o),
(381,217,c)
);
}
);
width = 480;
}
);
unicode = 113;
},
{
glyphname = r;
lastChange = "2025-06-30 02:12:42 +0000";
layers = (
{
.lastUpdate = 772942362.559;
background = {
shapes = (
{
closed = 1;
nodes = (
(304,405,l),
(286,408,o),
(268,409,o),
(250,409,cs),
(163,409,o),
(98,355,o),
(97,199,c),
(135,199,l),
(136,317,o),
(181,343,o),
(250,343,cs),
(262,343,o),
(275,342,o),
(288,340,c)
);
},
{
closed = 1;
nodes = (
(49,0,l),
(135,0,l),
(135,393,l),
(49,393,l)
);
}
);
};
layerId = m01;
shapes = (
{
closed = 1;
nodes = (
(312,431,l),
(297,445,o),
(271,446,o),
(250,446,cs),
(133,446,o),
(78,342,o),
(77,186,c),
(115,186,l),
(116,304,o),
(141,380,o),
(240,380,cs),
(256,380,o),
(275,377,o),
(294,361,c)
);
},
{
closed = 1;
nodes = (
(129,374,l),
(119,378,l),
(109,430,l),
(43,430,l),
(43,0,l),
(129,0,l)
);
}
);
width = 320;
}
);
unicode = 114;
},
{
glyphname = s;
lastChange = "2025-06-30 02:14:20 +0000";
layers = (
{
.lastUpdate = 772942460.04;
layerId = m01;
shapes = (
{
closed = 1;
nodes = (
(95,444,o),
(23,412,o),
(23,321,cs),
(23,246,o),
(100,215,o),
(130,203,cs),
(162,190,o),
(228,160,o),
(228,115,cs),
(228,78,o),
(205,50,o),
(158,50,cs),
(111,50,o),
(90,80,o),
(65,99,c),
(16,38,l),
(59,0,o),
(95,-15,o),
(158,-15,cs),
(219,-15,o),
(304,23,o),
(304,118,cs),
(304,206,o),
(227,236,o),
(189,256,cs),
(150,277,o),
(99,297,o),
(99,329,cs),
(99,361,o),
(124,379,o),
(152,379,cs),
(181,379,o),
(214,361,o),
(238,336,c),
(276,403,l),
(250,426,o),
(212,444,o),
(152,444,cs)
);
}
);
width = 320;
}
);
unicode = 115;
},
{
glyphname = t;
lastChange = "2025-06-29 18:27:32 +0000";
layers = (
{
.lastUpdate = 772926848.602;
layerId = m01;
shapes = (
{
closed = 1;
nodes = (
(117,2,l),
(203,2,l),
(203,589,l),
(117,589,l)
);
},
{
closed = 1;
nodes = (
(21,430,l),
(21,354,l),
(299,354,l),
(299,430,l)
);
}
);
width = 320;
}
);
unicode = 116;
},
{
glyphname = u;
lastChange = "2025-06-29 18:28:42 +0000";
layers = (
{
.lastUpdate = 772914522.994;
layerId = m01;
shapes = (
{
closed = 1;
nodes = (
(43,134,l),
(44,18,o),
(137,-16,o),
(224,-16,cs),
(341,-16,o),
(396,88,o),
(397,244,c),
(359,244,l),
(358,126,o),
(333,50,o),
(234,50,cs),
(195,50,o),
(130,66,o),
(129,134,c)
);
},
{
closed = 1;
nodes = (
(129,430,l),
(43,430,l),
(43,134,l),
(129,134,l)
);
},
{
closed = 1;
nodes = (
(345,56,l),
(355,52,l),
(365,0,l),
(431,0,l),
(431,430,l),
(345,430,l)
);
}
);
width = 480;
}
);
unicode = 117;
},
{
glyphname = v;
lastChange = "2025-06-30 03:17:32 +0000";
layers = (
{
.lastUpdate = 772946252.822;
backgroundImage = {
imagePath = "/Users/aliqadeer/Library/CloudStorage/Dropbox/Type West/T-03/images/slice_15.jpg";
pos = (0,-80);
scale = (1.7067,1.7067);
};
layerId = m01;
shapes = (
{
closed = 1;
nodes = (
(197,1,l),
(273,1,l),
(107,430,l),
(27,430,l)
);
},
{
closed = 1;
nodes = (
(374,430,l),
(207,1,l),
(283,1,l),
(453,430,l)
);
}
);
width = 480;
}
);
unicode = 118;
},
{
glyphname = w;
lastChange = "2025-06-30 02:17:09 +0000";
layers = (
{
.lastUpdate = 772942629.164;
layerId = m01;
shapes = (
{
closed = 1;
nodes = (
(146,1,l),
(222,1,l),
(104,430,l),
(28,430,l)
);
},
{
closed = 1;
nodes = (
(273,430,l),
(146,1,l),
(222,1,l),
(349,430,l)
);
},
{
closed = 1;
nodes = (
(401,1,l),
(477,1,l),
(349,430,l),
(273,430,l)
);
},
{
closed = 1;
nodes = (
(536,430,l),
(411,1,l),
(487,1,l),
(612,430,l)
);
}
);
width = 640;
}
);
unicode = 119;
},
{
glyphname = x;
lastChange = "2025-06-30 02:18:47 +0000";
layers = (
{
.lastUpdate = 772942727.863;
layerId = m01;
shapes = (
{
closed = 1;
nodes = (
(268,204,l),
(422,430,l),
(333,430,l),
(219,263,l)
);
},
{
closed = 1;
nodes = (
(356,1,l),
(445,1,l),
(124,430,l),
(35,430,l)
);
},
{
closed = 1;
nodes = (
(212,263,l),
(35,1,l),
(124,1,l),
(261,204,l)
);
}
);
width = 480;
}
);
unicode = 120;
},
{
glyphname = y;
lastChange = "2025-06-30 03:07:11 +0000";
layers = (
{
.lastUpdate = 772945631.149;
layerId = m01;
shapes = (
{
closed = 1;
nodes = (
(197,1,l),
(278,1,l),
(113,430,l),
(32,430,l)
);
},
{
closed = 1;
nodes = (
(364,430,l),
(202,1,l),
(283,1,l),
(445,430,l)
);
},
{
closed = 1;
nodes = (
(5,-172,l),
(38,-200,o),
(78,-216,o),
(118,-216,cs),
(176,-216,o),
(221,-155,o),
(234,-121,cs),
(262,-51,o),
(278,-10,o),
(283,1,c),
(197,1,l),
(191,-20,o),
(177,-58,o),
(169,-81,cs),
(161,-103,o),
(141,-137,o),
(118,-137,cs),
(97,-137,o),
(72,-129,o),
(60,-116,c)
);
}
);
width = 480;
}
);
unicode = 121;
},
{
glyphname = z;
lastChange = "2025-06-30 02:20:56 +0000";
layers = (
{
.lastUpdate = 772942856.877;
layerId = m01;
shapes = (
{
closed = 1;
nodes = (
(21,66,l),
(117,66,l),
(299,364,l),
(203,364,l)
);
},
{
closed = 1;
nodes = (
(21,66,l),
(21,0,l),
(299,0,l),
(299,66,l)
);
},
{
closed = 1;
nodes = (
(21,430,l),
(21,364,l),
(299,364,l),
(299,430,l)
);
}
);
width = 320;
}
);
unicode = 122;
},
{
glyphname = period;
lastChange = "2025-07-07 15:55:00 +0000";
layers = (
{
.lastUpdate = 773596500.156;
layerId = m01;
shapes = (
{
closed = 1;
nodes = (
(130,-16,o),
(157,11,o),
(157,51,cs),
(157,91,o),
(130,118,o),
(90,118,cs),
(50,118,o),
(23,91,o),
(23,51,cs),
(23,11,o),
(50,-16,o),
(90,-16,cs)
);
}
);
width = 180;
}
);
unicode = 46;
},
